inDegrees=no
num_controls=7
num_derivatives=13
num_iterations=110
num_multipliers=7
num_parameters=0
num_slacks=7
num_states=26
objective=4.847115
objective_accelerations=0.479100
objective_balance=0.018586
objective_effort=0.136859
objective_height=4.114695
objective_ligament=0.097875
solver_duration=1223.060221
status=Solve_Succeeded
success=true
DataType=double
version=3
OpenSimVersion=4.4-2022-07-23-0e9fedc
endheader
time	/jointset/ground_pelvis/pelvis_tilt/value	/jointset/ground_pelvis/pelvis_tx/value	/jointset/ground_pelvis/pelvis_ty/value	/jointset/hip_l/hip_flexion_l/value	/jointset/hip_l/hip_adduction_l/value	/jointset/hip_l/hip_rotation_l/value	/jointset/back/lumbar_extension/value	/jointset/patellofemoral_l/patellar_flexion_l/value	/jointset/knee_l/knee_flexion_l/value	/jointset/knee_l/knee_adduction_l/value	/jointset/knee_l/knee_rotation_l/value	/jointset/ankle_l/ankle_angle_l/value	/jointset/subtalar_l/subtalar_angle_l/value	/jointset/ground_pelvis/pelvis_tilt/speed	/jointset/ground_pelvis/pelvis_tx/speed	/jointset/ground_pelvis/pelvis_ty/speed	/jointset/hip_l/hip_flexion_l/speed	/jointset/hip_l/hip_adduction_l/speed	/jointset/hip_l/hip_rotation_l/speed	/jointset/back/lumbar_extension/speed	/jointset/patellofemoral_l/patellar_flexion_l/speed	/jointset/knee_l/knee_flexion_l/speed	/jointset/knee_l/knee_adduction_l/speed	/jointset/knee_l/knee_rotation_l/speed	/jointset/ankle_l/ankle_angle_l/speed	/jointset/subtalar_l/subtalar_angle_l/speed	/forceset/tau_hip_flexion_l	/forceset/tau_hip_adduction_l	/forceset/tau_hip_rotation_l	/forceset/tau_knee_flexion_l	/forceset/tau_ankle_angle_l	/forceset/tau_subtalar_angle_l	/forceset/tau_lumbar_extension	lambda_cid13_p0	lambda_cid13_p1	lambda_cid13_p2	lambda_cid13_p3	lambda_cid13_p4	lambda_cid13_p5	lambda_cid14_p0	/jointset/ground_pelvis/pelvis_tilt/accel	/jointset/ground_pelvis/pelvis_tx/accel	/jointset/ground_pelvis/pelvis_ty/accel	/jointset/hip_l/hip_flexion_l/accel	/jointset/hip_l/hip_adduction_l/accel	/jointset/hip_l/hip_rotation_l/accel	/jointset/back/lumbar_extension/accel	/jointset/patellofemoral_l/patellar_flexion_l/accel	/jointset/knee_l/knee_flexion_l/accel	/jointset/knee_l/knee_adduction_l/accel	/jointset/knee_l/knee_rotation_l/accel	/jointset/ankle_l/ankle_angle_l/accel	/jointset/subtalar_l/subtalar_angle_l/accel	gamma_cid13_p0	gamma_cid13_p1	gamma_cid13_p2	gamma_cid13_p3	gamma_cid13_p4	gamma_cid13_p5	gamma_cid14_p0
0.5	-0.1382715253023387	0.0633026219023522	0.8093031844101901	0.773504732654843	-0.3695304490587585	-0.03898361738424126	-0.3902437964371375	0.8289108893901452	0.8289108893901423	-0.05920239456368016	-0.1744908728864464	0.3111332520797551	0.1546266445870313	-0.5427602342792973	-0.117966593292894	-0.3685890166011706	1.81097508474185	0.006646789440212633	0.4768401277696107	-0.3260512127152945	1.657493744470133	1.65749374447025	0.227552851643796	0.0004887129728742484	0.5283454490373675	0.2239164554231258	-0.07407369762141634	0.0248887698321602	0.004766576035034645	-0.1912075294537254	-0.01996573068118807	0.01513044963380969	0.09839380323049986	-30.96546154237176	-1.543434505342285	0.4152218003812606	3.473625206906077	-446.3898249882738	-70.85306802013655	-9.991756362282095	0.040313919607286	0.1801348237654928	-0.322558435369493	-0.7989783956963655	0.03615400971294159	-0.4300761848291181	1.142121485503539	-1.352806058321816	-1.35280605832182	-0.4789840489618493	0.06663765424624106	-0.7513391139082346	-0.01615332312309691	-5.315411828445324e-08	-2.785437948607122e-06	3.057876991422133e-07	-3.477285457000644e-07	-1.369944208287682e-07	-1.717475017290771e-06	-2.46829505916752e-07
0.51	-0.1436961488326072	0.06213230376570546	0.8056020651302409	0.791571185185297	-0.3694628343874348	-0.03424084054671191	-0.3934472938127711	0.8454153258718203	0.8454153258718216	-0.05694984102350099	-0.1744863140233227	0.3163782663768255	0.1568637378672239	-0.5421140097549656	-0.1160656683752556	-0.3715490219578599	1.802059317075337	0.006883314477072459	0.4716278995936895	-0.3146087333789381	1.643140586614019	1.643140586614035	0.2229972165073249	0.0004091809189851887	0.5206008782107847	0.2234816785054337	-0.07716164238545879	0.02536193949064026	0.004162000694865625	-0.1936375088734172	-0.0207047700720133	0.01638661568158006	0.1009076223908931	-31.21913162897334	-2.010469948900304	0.4507277755111661	3.189120534817005	-448.6889984606796	-71.66440991073803	-9.299359627700053	0.08433058453248152	0.1997022910108928	-0.2698643540807426	-0.9763032260403377	0.01871516763447494	-0.5801014594061913	1.151240511962735	-1.514471698543954	-1.514471698559056	-0.4383490449707759	-0.04740583961096102	-0.7946112893965244	-0.05977723104300117	-8.294598188591391e-08	-2.490220310486583e-06	7.501495716542006e-07	-2.881941579647736e-07	-2.093756269544488e-07	-1.699969965371318e-06	-2.760300694764408e-07
0.52	-0.1491127993444794	0.06098192107128567	0.8018739172430721	0.8095407945843129	-0.3693925917823521	-0.0295528470560274	-0.3965351805241871	0.8617686505650772	0.8617686505650723	-0.05474174299449108	-0.1744829819216225	0.3215441159211579	0.1590959559072493	-0.541165630603234	-0.1139795048475078	-0.3739947380450734	1.791606458452362	0.007172376192411648	0.4658834584004632	-0.3029290798721869	1.627271386786393	1.627271386786307	0.2186617494116114	0.000243360688918005	0.5125124984896764	0.2229414073897133	-0.08024958714952184	0.02583510914912893	0.00355742535466594	-0.1960674882931124	-0.02144380946283904	0.01764278172936303	0.1034214415512673	-31.47134989330923	-2.484049482756168	0.4944614860012756	2.896479183534606	-450.9982303208109	-72.50925867841659	-8.611825067418795	0.1007448450868341	0.2171825457877314	-0.2197005814743434	-1.106396586988922	0.04666134540876927	-0.5365187882902023	1.189556319582286	-1.656014452624404	-1.656014452624404	-0.4349504408103882	0.04938001901061879	-0.8201008928129024	-0.03725216272863212	-1.88950909740136e-07	-1.816340068153737e-06	2.193308640184744e-06	-1.240754358088645e-07	-4.770009672710655e-07	-1.837478421337553e-06	-3.918745862580039e-07
0.53	-0.1545179173648469	0.05985309680869214	0.798123896741852	0.8273979311124816	-0.3693201806845361	-0.02491992117562752	-0.399505442590494	0.8779557389393546	0.8779557389393633	-0.0525810803342382	-0.1744796754778597	0.3266269064947045	0.1613205497228643	-0.5397796346351406	-0.1117796694147743	-0.3759247400468297	1.779590049769577	0.007326114934582379	0.4605877849247249	-0.2910910231906588	1.609932412036316	1.609932412036276	0.2135493762923726	0.0003773400980347303	0.5039783034590011	0.2219607859680715	-0.08411211331641988	0.02775943333592325	0.002949065974387571	-0.1969694806487344	-0.02414517392068818	0.01811074986037088	0.1063810083315187	-32.43389062916522	-2.47537056902913	0.4435225724832088	3.325818295920965	-453.2681746855028	-72.18566806961215	-7.933262272025766	0.1692549933979949	0.2222282070740494	-0.1670802010484017	-1.283914986920075	0.001813936349257686	-0.5436257468894951	1.185776871639633	-1.804829846979761	-1.804829846972904	-0.5377172676356976	-0.01018585920301293	-0.8802409591679862	-0.1310734090238626	-2.412610705864164e-07	-1.318635451872192e-06	2.951739575357093e-06	-1.998451718911786e-08	-6.107161378351553e-07	-1.805777108547352e-06	-4.427532227187377e-07
0.54	-0.1599068298213739	0.0587464397334384	0.7943570901823099	0.8451279731582318	-0.3692458154397574	-0.02034345885391164	-0.4023563547841438	0.8939630393939818	0.8939630393939779	-0.05046920870930329	-0.1744761477921774	0.3316223226877498	0.1635348160688343	-0.5379245178380078	-0.1095460673795519	-0.3773519497095114	1.766187561966912	0.007563205585864007	0.4545907466620361	-0.2790591053411131	1.59131380285502	1.591313802855026	0.208903542366935	0.0002876090645426793	0.4950376223894039	0.2208759134607557	-0.08797463948332424	0.02968375752277764	0.002340706593726166	-0.1978714730043431	-0.02684653837851821	0.01857871799147692	0.1093405751117539	-33.39456839428999	-2.473288189453237	0.4007991496755475	3.734701973215713	-455.5139165405714	-71.93852331492974	-7.284624072197714	0.194569010894259	0.2239358662858406	-0.1191421136594042	-1.383612410965227	0.06333172723088369	-0.6767917456803447	1.228328553185566	-1.911941338868155	-1.911941338868167	-0.341642602050212	0.004637930488858911	-0.9013981005968489	-0.05810237986330687	-2.341642551685903e-07	-1.015848549519749e-06	2.952598958728876e-06	1.769266134806538e-08	-5.96275375907086e-07	-1.586864987771307e-06	-4.217547149947232e-07
